<svg xmlns="http://www.w3.org/2000/svg" width="150" height="50" viewBox="0,0,150,50"><rect width="100%" height="100%" fill="#fff"/><path d="M14 43 C87 6,89 39,131 30" stroke="#4fd84f" fill="none"/><path fill="#e68da3" d="M25.82 17.47L25.79 17.43L25.65 17.29Q22.83 17.47 21.47 17.69L21.57 17.78L21.60 17.82Q19.21 18.09 17.47 18.85L17.38 18.76L17.49 18.88Q12.56 21.02 12.40 27.71L12.22 27.52L12.25 27.56Q12.10 31.32 13.03 35.51L13.08 35.57L13.22 35.70Q14.46 41.45 19.62 43.14L19.48 42.99L19.52 43.03Q22.21 43.82 24.28 43.61L24.34 43.67L24.91 43.58L25.01 43.69Q25.24 43.64 25.51 43.70L25.44 43.63L25.53 43.71Q25.77 43.74 25.99 43.68L25.93 43.63L25.95 43.65Q29.66 43.23 31.62 42.41L31.70 42.49L26.58 37.43L26.48 37.33Q27.01 36.93 27.88 36.06L27.78 35.96L29.26 34.83L29.19 34.76Q31.81 37.71 34.64 40.65L34.60 40.60L34.62 40.62Q37.92 37.99 38.30 30.32L38.31 30.34L38.26 30.29Q38.42 29.03 38.42 27.73L38.51 27.82L38.35 27.66Q38.42 19.62 31.18 18.05L31.28 18.14L31.22 18.08Q29.33 17.60 25.74 17.39ZM43.90 48.82L44.04 48.96L43.92 48.84Q43.10 49.49 41.42 50.74L41.47 50.79L35.16 45.52L35.09 45.44Q31.68 47.31 25.59 47.37L25.43 47.20L25.57 47.35Q16.07 47.37 12.05 44.16L12.15 44.26L12.08 44.19Q9.62 41.72 8.96 37.48L8.98 37.50L9.02 37.54Q8.61 34.84 8.06 29.73L8.08 29.74L8.16 29.83Q8.19 28.83 8.03 26.33L8.00 26.29L8.00 26.30Q7.74 24.02 7.79 22.77L7.79 22.77L7.74 22.72Q8.00 18.47 10.51 16.24L10.46 16.19L10.51 16.25Q12.56 14.22 17.13 13.51L17.18 13.55L17.14 13.52Q20.71 13.01 24.84 13.12L24.88 13.15L24.79 13.06Q35.50 13.22 39.96 16.59L40.02 16.66L40.14 16.78Q43.15 19.73 42.77 26.75L42.77 26.75L42.71 26.69Q42.51 31.98 42.24 33.88L42.25 33.89L42.12 33.77Q41.39 40.38 38.07 43.69L38.01 43.63L37.96 43.59Q40.13 45.43 44.05 48.96ZM36.97 14.15L36.97 14.15L37.04 14.22Q34.23 13.26 24.93 12.56L24.96 12.58L24.91 12.53Q22.97 12.60 19.00 12.77L18.86 12.62L19.02 12.78Q12.90 13.03 9.69 15.86L9.60 15.77L9.72 15.88Q7.37 18.00 7.37 22.51L7.32 22.46L7.24 22.38Q7.35 23.69 7.57 26.14L7.62 26.19L7.43 26.00Q7.73 28.53 7.73 29.78L7.64 29.69L7.82 29.87Q8.03 32.36 8.57 37.47L8.49 37.39L8.44 37.34Q8.96 41.45 11.24 44.39L11.34 44.48L11.22 44.36Q11.70 45.55 13.44 47.19L13.60 47.34L13.55 47.29Q17.38 50.08 24.77 50.46L24.82 50.51L24.78 50.47Q25.26 50.47 28.69 50.63L28.77 50.71L28.67 50.61Q35.58 50.88 38.84 49.36L38.94 49.46L38.82 49.34Q40.00 50.25 46.75 55.36L46.83 55.45L46.74 55.36Q47.64 54.62 49.49 53.21L49.59 53.31L49.56 53.28Q48.26 52.25 47.12 51.27L47.22 51.38L44.69 49.11L44.85 49.06L44.97 49.18Q44.05 48.42 42.31 46.95L42.31 46.95L42.44 47.09Q45.00 43.34 45.00 36.87L45.03 36.90L45.09 36.96Q45.00 36.27 45.06 35.07L45.08 35.09L45.05 35.07Q45.27 34.03 45.27 33.43L45.13 33.30L45.21 33.38Q45.14 25.42 44.10 22.05L44.20 22.14L44.26 22.21Q43.70 20.34 42.45 18.81L42.31 18.68L42.37 18.74Q41.22 15.68 37.03 14.21ZM28.49 20.79L28.50 20.80L28.43 20.73Q34.34 20.71 36.95 23.00L36.97 23.01L36.91 22.95Q37.74 24.71 37.90 26.61L37.93 26.64L37.77 26.48Q38.06 28.45 37.95 30.41L37.94 30.40L37.82 30.29Q37.38 37.40 34.61 39.85L34.55 39.80L34.59 39.84Q32.75 37.99 29.16 34.07L29.26 34.18L29.25 34.16Q27.96 35.05 25.73 37.28L25.79 37.34L25.78 37.34Q26.70 38.31 28.33 39.99L28.27 39.93L28.06 39.88L28.05 39.88Q28.90 40.67 30.37 42.19L30.48 42.30L30.41 42.23Q29.09 42.71 25.78 43.15L25.68 43.05L24.99 43.12L24.45 43.18L24.41 43.19L24.35 43.13Q19.36 43.09 16.53 40.76L16.50 40.72L16.54 40.76Q15.10 37.80 15.15 33.34L15.11 33.29L15.13 33.32Q15.35 20.86 28.45 20.75Z"/><path fill="#8fe48f" d="M89.10 46.16L89.12 46.17L86.28 46.11L86.30 46.13Q84.96 46.15 83.60 46.31L83.61 46.33L83.73 46.44Q84.50 37.54 84.50 31.83L84.44 31.76L84.38 31.70Q78.81 22.27 67.87 9.87L67.98 9.97L67.97 9.96Q70.41 11.26 75.19 12.40L75.14 12.35L75.17 12.38Q82.38 20.35 86.68 27.80L86.85 27.97L86.75 27.88Q90.98 19.86 97.23 12.68L97.31 12.76L97.32 12.77Q100.65 12.07 104.24 10.93L104.39 11.09L104.23 10.92Q95.67 19.71 88.70 31.73L88.79 31.81L88.65 31.68Q88.67 41.76 89.10 46.16ZM102.16 13.97L106.01 9.88L105.93 9.80Q101.70 11.66 97.24 12.31L97.14 12.22L97.11 12.19Q91.03 18.88 87.01 26.17L87.14 26.31L87.05 26.21Q84.11 21.10 79.54 15.55L79.40 15.41L79.52 15.53Q79.01 15.41 78.31 15.30L78.41 15.40L78.44 15.43Q77.43 14.26 75.26 11.86L75.23 11.83L75.18 11.79Q70.47 10.83 66.22 8.60L66.22 8.60L66.19 8.56Q77.14 20.60 83.94 31.91L83.89 31.87L83.96 31.93Q83.76 40.92 82.89 46.85L82.95 46.91L82.92 46.88Q84.11 46.98 86.18 46.82L86.08 46.73L86.01 48.13L86.10 48.21Q86.19 48.96 86.09 49.72L85.92 49.56L86.03 49.67Q91.03 49.60 93.53 49.88L93.50 49.85L93.61 49.96Q91.79 43.25 91.63 34.71L91.52 34.60L91.52 34.60Q97.89 22.64 107.24 12.14L107.24 12.15L102.22 14.03Z"/><path d="M20 26 C57 34,60 31,132 3" stroke="#8ed943" fill="none"/><path fill="#468ed6" d="M46.88 60.26L46.84 60.23L46.73 60.12Q51.02 54.72 55.15 45.86L55.13 45.83L55.02 45.72Q50.58 36.39 41.88 24.86L41.83 24.82L41.81 24.79Q44.63 26.53 48.60 27.46L48.61 27.46L48.55 27.40Q53.65 34.13 57.13 41.58L57.11 41.56L57.19 41.64Q60.33 34.13 64.74 27.82L64.55 27.63L64.60 27.68Q67.76 27.20 70.75 26.05L70.84 26.14L70.77 26.08Q65.85 31.49 60.90 42.09L60.95 42.14L56.85 50.66L56.90 50.70Q54.86 55.19 52.35 58.94L52.27 58.86L52.41 59.00Q48.77 59.33 46.70 60.09ZM55.63 62.11L55.53 62.01L55.55 62.03Q58.08 57.98 60.14 53.30L60.14 53.30L63.97 44.18L64.07 44.28Q69.04 32.77 73.77 27.06L73.70 26.99L73.74 27.04Q71.91 28.09 69.19 29.07L69.22 29.10L70.67 27.06L70.62 27.01Q71.36 25.95 72.23 24.97L72.32 25.06L72.19 24.93Q68.43 26.51 64.35 27.16L64.43 27.24L64.32 27.13Q60.50 32.83 57.73 39.19L57.73 39.19L57.77 39.23Q55.27 34.34 52.72 30.32L52.80 30.40L52.78 30.38Q52.55 30.43 52.04 30.37L51.97 30.31L51.98 30.31Q51.39 30.18 51.11 30.18L51.25 30.32L51.17 30.24Q50.10 28.46 48.74 26.83L48.66 26.75L48.68 26.77Q44.28 25.96 40.36 23.51L40.34 23.49L40.41 23.56Q49.16 34.81 54.44 45.69L54.61 45.86L54.58 45.83Q51.35 52.94 45.53 60.99L45.59 61.05L45.56 61.01Q46.79 60.67 47.93 60.45L47.92 60.43L50.16 59.85L50.23 59.91Q49.40 60.99 47.71 63.33L47.73 63.34L47.59 63.21Q50.91 62.39 55.59 62.07Z"/><path fill="#a055ec" d="M116.46 46.50L116.61 46.65L113.66 46.96L113.49 46.79Q112.85 46.80 111.46 46.89L111.50 46.92L111.60 47.02Q110.22 47.12 109.52 47.12L109.41 47.01L109.43 47.03Q107.00 46.93 105.53 45.74L105.65 45.86L105.58 45.79Q106.67 44.16 109.01 41.12L109.05 41.16L109.01 41.12Q110.87 43.41 114.02 43.08L114.12 43.18L113.96 43.03Q115.43 43.02 116.35 42.09L116.22 41.96L116.25 41.99Q117.13 41.03 116.97 39.78L116.96 39.76L117.03 39.84Q116.92 33.31 117.03 26.79L116.97 26.72L117.05 26.81Q117.06 20.18 117.82 13.60L117.87 13.65L117.86 13.64Q120.54 13.27 123.58 11.80L123.62 11.83L123.66 11.88Q120.88 21.39 120.88 31.72L121.01 31.85L120.96 31.81Q121.04 36.94 121.70 41.95L121.62 41.87L121.69 41.94Q121.69 42.32 121.69 42.81L121.64 42.76L121.69 42.82Q121.72 43.65 121.39 44.41L121.41 44.44L121.45 44.47Q120.64 46.27 116.62 46.65ZM123.70 50.75L123.65 50.70L124.18 50.74L124.41 50.37L124.77 50.19L124.96 50.38Q125.35 49.95 125.46 49.79L125.51 49.84L125.42 49.75Q125.71 48.09 125.33 46.67L125.31 46.65L125.24 46.58Q123.39 38.37 123.77 29.29L123.86 29.37L123.80 29.31Q124.05 20.48 126.60 12.05L126.63 12.07L126.77 12.21Q125.42 13.03 123.62 14.07L123.56 14.01L123.67 14.12Q123.92 13.01 124.52 10.83L124.47 10.79L124.52 10.84Q120.93 12.74 117.12 13.17L117.12 13.17L117.13 13.18Q116.51 19.36 116.40 26.43L116.44 26.46L116.53 26.55Q116.39 34.96 116.50 39.85L116.55 39.90L116.52 39.87Q116.49 42.29 113.99 42.51L114.11 42.63L114.06 42.57Q111.68 42.81 109.29 40.47L109.15 40.33L109.23 40.41Q106.28 43.99 104.92 46.22L104.99 46.28L104.84 46.14Q105.89 47.19 107.36 47.51L107.32 47.48L107.31 47.47Q107.20 47.68 106.82 48.01L106.77 47.95L106.85 48.04Q108.81 49.29 111.64 49.67L111.80 49.83L111.80 49.84Q112.26 49.80 116.96 50.24L116.95 50.23L117.01 50.28Q121.59 50.59 123.54 50.59Z"/><path d="M5 32 C58 16,84 24,138 2" stroke="#e5e556" fill="none"/></svg>